{"title":"Inna - Crazy Sexy Wild {M4A+MP4} (1080p) x264[VX][P2PDL]","uid":7686043,"size":39288909,"categoryP":"video","categoryS":"music_videos","magnet":"?xt=urn:btih:711c5bc8838c255c774427c71e1cc87e6d6e5b32&amp;dn=Inna+-+Crazy+Sexy+Wild+%7BM4A%2BMP4%7D+%281080p%29+x264%5BVX%5D%5BP2PDL%5D&amp;tr=udp%3A%2F%2Ftracker.openbittorrent.com%3A80&amp;tr=udp%3A%2F%2Fopen.demonii.com%3A1337&amp;tr=udp%3A%2F%2Ftracker.coppersurfer.tk%3A6969&amp;tr=udp%3A%2F%2Fexodus.desync.com%3A6969","seeders":1,"leechers":1,"uploader":"Vitamin_X","files":-1,"time":1348949235,"description":"Music video by Inna performing Crazy, Sexy, Wild.\n\nA girl with a plan and seems like she found the perfect scapegoat for its successful execution. This is how things will unravel.\n\n\n\t\t           1080p Full HD MP4 Video\n                                     +\n                            96 kbps/VBR M4A Audio\n\n\nCover:  &lt;a href=&quot;\nhttp://www.shotpix.com/images/00399401050642029345.jpg&quot; rel=&quot;nofollow&quot; target=&quot;_NEW&quot;&gt;\nhttp://www.shotpix.com/images/00399401050642029345.jpg&lt;/a&gt;\n\nSing Along!\nEnglish subtitles included.\n\n                 Details:\n\nGeneral\nFormat                         : MPEG-4\nFormat profile                 : Base Media / Version 2\nCodec ID                       : mp42\nFile size                      : 34.7 MiB\nDuration                       : 3mn 21s\nOverall bit rate mode          : Variable\nOverall bit rate               : 1 446 Kbps\n\nVideo\nID                             : 1\nFormat                         : AVC\nDuration                       : 3mn 21s\nBit rate mode                  : Variable\nBit rate                       : 1 312 Kbps\nWidth                          : 1 920 pixels\nHeight                         : 1 080 pixels\nDisplay aspect ratio           : 16:9\nFrame rate mode                : Variable\nFrame rate                     : 23.976 fps\nStream size                    : 31.5 MiB (91%)\n\nAudio\nID                             : 2\nFormat/Info                    : Advanced Audio Codec\nFormat profile                 : LC\nCodec ID                       : 40\nDuration                       : 3mn 21s\nBit rate mode                  : Variable\nBit rate                       : 128 Kbps\nChannel(s)                     : 2 channels\nChannel positions              : Front: L R\nSampling rate                  : 48.0 KHz\nStream size                    : 3.07 MiB (9%)\n\n\n\n\n\n\n\n\nScreens:\n\n &lt;a href=&quot;\nhttp://www.shotpix.com/images/13781478717953378999.jpg&quot; rel=&quot;nofollow&quot; target=&quot;_NEW&quot;&gt;\nhttp://www.shotpix.com/images/13781478717953378999.jpg&lt;/a&gt;\n &lt;a href=&quot;\nhttp://www.shotpix.com/images/38245513405652079768.jpg&quot; rel=&quot;nofollow&quot; target=&quot;_NEW&quot;&gt;\nhttp://www.shotpix.com/images/38245513405652079768.jpg&lt;/a&gt;\n\n\n\nThumbs:\n &lt;a href=&quot;\nhttp://www.shotpix.com/images/73866403946906146893.jpg&quot; rel=&quot;nofollow&quot; target=&quot;_NEW&quot;&gt;\nhttp://www.shotpix.com/images/73866403946906146893.jpg&lt;/a&gt;\n\n\n------------------------------------------------------------------------------\n\n\nNotes:\n\n* Best played on VLC Media Player.\n* Install shark007 codecs in case of any kind of problem in playback (For non-VLC Media Player users).\n* Alternatively, install Core AVC codecs, the fastest decoder that there is coupled with Community Center Codec Pack and play on Windows Media Player Classic.\n* Read NFO\n* Help in seeding this torrent as much as you can. \n\n\n\n\nGreets to: VYTO, srkfan, MgB, staff members at ExtraTorrent, TPB,KAT, 1337x, PublicHD, Ahashare,\nSilverTorrent, TorrentMafia, P2PDL, and all others\n\n\nEncoder Notes: \nLooking For Early Access To Anything You Can Provide DVDScr, R5, DVDRips, BluRay, Direct Audio, Early Music Releases, Seedboxes, Links, Dedicated Servers, Advance / Promo CDs/DVDs. If You Got anything to offer contact me at &quot;&lt;a class=&quot;__cf_email__&quot; href=&quot;/cdn-cgi/l/email-protection&quot; data-cfemail=&quot;f0939f9e84919384b084999e899dde9585&quot;&gt;[email&amp;#160;protected]&lt;/a&gt;&lt;script cf-hash='f9e31' type=&quot;text/javascript&quot;&gt;\n/* &lt;![CDATA[ */!function(){try{var t=&quot;currentScript&quot;in document?document.currentScript:function(){for(var t=document.getElementsByTagName(&quot;script&quot;),e=t.length;e--;)if(t[e].getAttribute(&quot;cf-hash&quot;))return t[e]}();if(t&amp;&amp;t.previousSibling){var e,r,n,i,c=t.previousSibling,a=c.getAttribute(&quot;data-cfemail&quot;);if(a){for(e=&quot;&quot;,r=parseInt(a.substr(0,2),16),n=2;a.length-n;n+=2)i=parseInt(a.substr(n,2),16)^r,e+=String.fromCharCode(i);e=document.createTextNode(e),c.parentNode.replaceChild(e,c)}}}catch(u){}}();/* ]]&gt; */&lt;/script&gt;&quot;\n                                 \n                                  Enjoy!","torrent":{"xt":"urn:btih:711c5bc8838c255c774427c71e1cc87e6d6e5b32","amp;dn":"Inna+-+Crazy+Sexy+Wild+%7BM4A%2BMP4%7D+%281080p%29+x264%5BVX%5D%5BP2PDL%5D","amp;tr":["udp%3A%2F%2Ftracker.openbittorrent.com%3A80","udp%3A%2F%2Fopen.demonii.com%3A1337","udp%3A%2F%2Ftracker.coppersurfer.tk%3A6969","udp%3A%2F%2Fexodus.desync.com%3A6969"],"infoHash":"711c5bc8838c255c774427c71e1cc87e6d6e5b32","infoHashBuffer":{"type":"Buffer","data":[113,28,91,200,131,140,37,92,119,68,39,199,30,28,200,126,109,110,91,50]},"announce":[],"urlList":[]}}